<svg width="1312" height="368" viewBox="0 0 1312 368" fill="none" xmlns="http://www.w3.org/2000/svg">
<path fill-rule="evenodd" clip-rule="evenodd" d="M24 69C24 60.5992 24 56.3988 25.6349 53.1901C27.073 50.3677 29.3677 48.073 32.1901 46.6349C35.3988 45 39.5992 45 48 45H1288C1296.4 45 1300.6 45 1303.81 46.6349C1306.63 48.073 1308.93 50.3677 1310.37 53.1901C1312 56.3988 1312 60.5992 1312 69V188C1312 196.401 1312 200.601 1310.37 203.81C1308.93 206.632 1306.63 208.927 1303.81 210.365C1300.6 212 1296.4 212 1288 212H48C39.5992 212 35.3988 212 32.1901 210.365C29.3677 208.927 27.073 206.632 25.6349 203.81C24 200.601 24 196.401 24 188V69Z" fill="#009247"/>
<path d="M655.5 104C655.5 154.591 614.701 195.5 564.5 195.5C514.299 195.5 473.5 154.591 473.5 104C473.5 53.4091 514.299 12.5 564.5 12.5C614.701 12.5 655.5 53.4091 655.5 104Z" stroke="white" stroke-opacity="0.05" stroke-width="25"/>
<circle cx="76" cy="292" r="64" stroke="white" stroke-opacity="0.05" stroke-width="24"/>
<path d="M112 129.5C112 142.384 101.35 153 88 153C74.6497 153 64 142.384 64 129.5C64 116.616 74.6497 106 88 106C101.35 106 112 116.616 112 129.5Z" stroke="#54B435" stroke-opacity="0.5" stroke-width="12"/>
</svg>
